<svg height="512pt" viewBox="-31 0 512 512" width="512pt" xmlns="http://www.w3.org/2000/svg"><path d="m219.460938 450.929688c1.714843.683593 3.582031 1.070312 5.539062 1.070312h180c8.269531 0 15 6.730469 15 15s-6.730469 15-15 15h-90c-8.285156 0-15 6.714844-15 15s6.714844 15 15 15h90c24.8125 0 45-20.1875 45-45s-20.1875-45-45-45h-70.53125c17.875-10.148438 34.566406-22.839844 49.628906-37.902344 42.5-42.496094 65.902344-98.996094 65.902344-159.097656 0-124.351562-100.632812-225-225-225-124.351562 0-225 100.632812-225 225 0 125.710938 102.175781 223.015625 219.460938 225.929688zm-96.808594-391.980469c2.9375-1.820313 5.917968-3.554688 8.941406-5.210938-27.878906 140.222657 79.835938 269 220.738281 269 14.742188 0 29.453125-1.457031 43.929688-4.332031-1.652344 3.023438-3.390625 6.003906-5.210938 8.941406-76.160156 47.070313-176.707031 35.488282-240.296875-28.101562s-75.167968-164.136719-28.101562-240.296875zm81.90625 166.050781c51.882812-60.066406 133.929687-81.527344 206.480468-58.699219 2.527344 8.039063 4.539063 16.257813 6.007813 24.621094-62.316406-.335937-122.988281 25.105469-166.867187 72.84375-16.800782-10.277344-32.203126-23.164063-45.621094-38.765625zm215.390625-4.023438c.027343 1.339844.050781 2.679688.050781 4.023438 0 20.210938-3.066406 39.945312-8.957031 58.6875-19.074219 6.003906-38.726563 8.9375-58.273438 8.9375-25.59375 0-50.992187-5.019531-74.632812-14.695312 37.753906-37.695313 88.835937-58.058594 141.8125-56.953126zm-28.898438-98.328124c1.816407 2.941406 3.554688 5.921874 5.210938 8.949218-75.589844-15.03125-155.390625 9.328125-209.804688 68.613282-11.425781-18.582032-19.605469-38.890626-24.320312-59.980469 64.257812-54.902344 156.753906-62.222657 228.914062-17.582031zm-46.839843-51.996094c-63.824219-16.214844-132.304688-4.125-186.648438 35.039062-.960938-22.308594 1.871094-44.902344 8.738281-66.730468 18.746094-5.894532 38.484375-8.960938 58.699219-8.960938 43.710938 0 85.222656 14.292969 119.210938 40.652344zm-273.582032 35.167968c-41.957031 165.296876 108.113282 315.675782 273.710938 273.519532-34.433594 27.015625-76.007813 41.660156-119.339844 41.660156-103.320312 0-195-85.121094-195-196 0-43.699219 14.28125-85.199219 40.628906-119.179688zm0 0"/></svg>